#N canvas 168 153 1424 687 12;
#X obj 450 179 mtof;
#X obj 453 109 hsl 128 15 0 127 0 0 empty empty empty -2 -8 0 10 #fcfcfc
#000000 #000000 0 1;
#X obj 452 372 dac~, f 38;
#X text 393 66 TODO: midi/OSC input;
#X obj 627 98 vsl 15 128 0 127 0 0 empty empty empty 0 -9 0 10 #fcfcfc
#000000 #000000 0 1;
#N canvas -25 -13 1680 967 osc 0;
#X obj 92 179 osc~;
#X obj 177 179 phasor~;
#X obj 236 80 inlet~;
#X obj 91 270 outlet~;
#X text 343 81 OSC1;
#X text 878 89 OSC2;
#N canvas 156 156 1680 967 square~ 0;
#X obj 134 114 phasor~;
#X text 332 64 Square wave osc built using: http://archive.flossmanuals.net/pure-data/audio-tutorials/oscillators.html
;
#X obj 134 147 expr~ $v1 > 0.5;
#X obj 133 62 inlet~;
#X obj 133 193 outlet~;
#X connect 0 0 2 0;
#X connect 2 0 4 0;
#X connect 3 0 0 0;
#X restore 268 181 pd square~;
#N canvas 487 418 450 300 osc-router 0;
#X obj 69 45 inlet;
#X obj 17 44 inlet~;
#X obj 16 82 *~;
#X obj 154 180 outlet~;
#X obj 169 47 inlet;
#X obj 117 46 inlet~;
#X obj 116 84 *~;
#X obj 269 48 inlet;
#X obj 217 47 inlet~;
#X obj 216 85 *~;
#X obj 372 50 inlet;
#X obj 320 49 inlet~;
#X obj 319 87 *~;
#X connect 0 0 2 1;
#X connect 1 0 2 0;
#X connect 2 0 3 0;
#X connect 4 0 6 1;
#X connect 5 0 6 0;
#X connect 6 0 3 0;
#X connect 7 0 9 1;
#X connect 8 0 9 0;
#X connect 9 0 3 0;
#X connect 10 0 12 1;
#X connect 11 0 12 0;
#X connect 12 0 3 0;
#X restore 91 227 pd osc-router;
#X f 53;
#X obj 133 179 tgl 15 0 empty empty empty 17 7 0 10 #fcfcfc #000000
#000000 0 1;
#X obj 238 179 tgl 15 0 empty empty empty 17 7 0 10 #fcfcfc #000000
#000000 0 1;
#X obj 353 181 tgl 15 0 empty empty empty 17 7 0 10 #fcfcfc #000000
#000000 0 1;
#X obj 445 181 tgl 15 0 empty empty empty 17 7 0 10 #fcfcfc #000000
#000000 0 1;
#X obj 383 181 noise~;
#X obj 628 188 osc~;
#X obj 713 188 phasor~;
#X obj 772 89 inlet~;
#N canvas 156 156 1680 967 square~ 0;
#X obj 134 114 phasor~;
#X text 332 64 Square wave osc built using: http://archive.flossmanuals.net/pure-data/audio-tutorials/oscillators.html
;
#X obj 134 147 expr~ $v1 > 0.5;
#X obj 133 62 inlet~;
#X obj 133 193 outlet~;
#X connect 0 0 2 0;
#X connect 2 0 4 0;
#X connect 3 0 0 0;
#X restore 804 190 pd square~;
#N canvas 487 418 450 300 osc-router 0;
#X obj 69 45 inlet;
#X obj 17 44 inlet~;
#X obj 16 82 *~;
#X obj 154 180 outlet~;
#X obj 169 47 inlet;
#X obj 117 46 inlet~;
#X obj 116 84 *~;
#X obj 269 48 inlet;
#X obj 217 47 inlet~;
#X obj 216 85 *~;
#X obj 372 50 inlet;
#X obj 320 49 inlet~;
#X obj 319 87 *~;
#X connect 0 0 2 1;
#X connect 1 0 2 0;
#X connect 2 0 3 0;
#X connect 4 0 6 1;
#X connect 5 0 6 0;
#X connect 6 0 3 0;
#X connect 7 0 9 1;
#X connect 8 0 9 0;
#X connect 9 0 3 0;
#X connect 10 0 12 1;
#X connect 11 0 12 0;
#X connect 12 0 3 0;
#X restore 627 236 pd osc-router;
#X f 53;
#X obj 669 188 tgl 15 0 empty empty empty 17 7 0 10 #fcfcfc #000000
#000000 0 1;
#X obj 774 188 tgl 15 0 empty empty empty 17 7 0 10 #fcfcfc #000000
#000000 0 1;
#X obj 889 190 tgl 15 0 empty empty empty 17 7 0 10 #fcfcfc #000000
#000000 0 1;
#X obj 981 190 tgl 15 0 empty empty empty 17 7 0 10 #fcfcfc #000000
#000000 0 1;
#X obj 919 190 noise~;
#X obj 627 278 outlet~;
#X text 90 338 TODO: Test and Improve signal routing;
#X connect 0 0 7 0;
#X connect 1 0 7 2;
#X connect 2 0 0 0;
#X connect 2 0 1 0;
#X connect 2 0 6 0;
#X connect 6 0 7 4;
#X connect 7 0 3 0;
#X connect 8 0 7 1;
#X connect 9 0 7 3;
#X connect 10 0 7 5;
#X connect 11 0 7 7;
#X connect 12 0 7 6;
#X connect 13 0 17 0;
#X connect 14 0 17 2;
#X connect 15 0 13 0;
#X connect 15 0 14 0;
#X connect 15 0 16 0;
#X connect 16 0 17 4;
#X connect 17 0 23 0;
#X connect 18 0 17 1;
#X connect 19 0 17 3;
#X connect 20 0 17 5;
#X connect 21 0 17 7;
#X connect 22 0 17 6;
#X restore 450 232 pd osc;
#X f 13;
#N canvas -67 -18 1680 967 filter 0;
#X obj 147 173 inlet~;
#X obj 147 215 outlet~;
#X text 143 139 FILTER1;
#X obj 245 170 inlet~;
#X obj 245 212 outlet~;
#X text 241 136 FILTER2;
#X text 163 538 Build out filters: LPF \, HPF \, and BPF with routing
selection;
#X connect 0 0 1 0;
#X connect 3 0 4 0;
#X restore 451 279 pd filter;
#X f 13;
#N canvas 713 79 1680 967 volume 0;
#X obj 596 55 inlet;
#X obj 171 112 / 127;
#X obj 170 150 pack 0 50;
#X obj 170 181 line~;
#X obj 153 220 *~;
#X obj 112 56 inlet~;
#X obj 154 320 outlet~;
#X obj 684 54 inlet;
#X obj 374 112 / 127;
#X obj 373 150 pack 0 50;
#X obj 373 181 line~;
#X obj 356 220 *~;
#X obj 315 56 inlet~;
#X obj 357 320 outlet~;
#X text 639 20 VOL;
#X text 192 19 AUDIO;
#X connect 0 0 1 0;
#X connect 1 0 2 0;
#X connect 2 0 3 0;
#X connect 3 0 4 1;
#X connect 4 0 6 0;
#X connect 5 0 4 0;
#X connect 7 0 8 0;
#X connect 8 0 9 0;
#X connect 9 0 10 0;
#X connect 10 0 11 1;
#X connect 11 0 13 0;
#X connect 12 0 11 0;
#X restore 452 322 pd volume;
#X f 38;
#X obj 715 98 vsl 15 128 0 127 0 0 empty empty empty 0 -9 0 10 #fcfcfc
#000000 #000000 0 1;
#X connect 0 0 5 0;
#X connect 0 0 5 1;
#X connect 1 0 0 0;
#X connect 4 0 7 2;
#X connect 5 0 6 0;
#X connect 5 1 6 1;
#X connect 6 0 7 0;
#X connect 6 1 7 1;
#X connect 7 0 2 0;
#X connect 7 1 2 1;
#X connect 8 0 7 3;
