#N canvas 1989 -20 1680 967 12;
#X obj 72 297 mtof;
#X obj 74 269 hsl 128 15 0 127 0 0 empty empty empty -2 -8 0 10 #fcfcfc
#000000 #000000 0 1;
#X text 418 101 OSCILLATORS;
#X text 747 100 FILTERS;
#X text 1176 104 AMP;
#X obj 422 418 osc~;
#X text 329 205 OSC 1;
#X text 324 411 OSC 2;
#X obj 1096 467 dac~;
#X obj 409 339 phasor~;
#X text 1256 301 TODO: subpatch for this section;
#X text 70 226 TODO: midi/OSC input;
#X text 417 134 TODO: Build out;
#X text 743 145 TODO: Build out;
#N canvas 733 196 1680 967 volume 0;
#X obj 171 56 inlet;
#X obj 171 112 / 127;
#X obj 170 150 pack 0 50;
#X obj 170 181 line~;
#X obj 153 220 *~;
#X obj 112 56 inlet~;
#X obj 154 320 outlet~;
#X connect 0 0 1 0;
#X connect 1 0 2 0;
#X connect 2 0 3 0;
#X connect 3 0 4 1;
#X connect 4 0 6 0;
#X connect 5 0 4 0;
#X restore 1091 367 pd volume 1;
#N canvas 733 196 1680 967 volume 0;
#X obj 171 56 inlet;
#X obj 171 112 / 127;
#X obj 170 150 pack 0 50;
#X obj 170 181 line~;
#X obj 153 220 *~;
#X obj 112 56 inlet~;
#X obj 154 320 outlet~;
#X connect 0 0 1 0;
#X connect 1 0 2 0;
#X connect 2 0 3 0;
#X connect 3 0 4 1;
#X connect 4 0 6 0;
#X connect 5 0 4 0;
#X restore 1122 401 pd volume 2;
#X obj 1165 199 vsl 15 128 0 127 0 0 empty empty empty 0 -9 0 10 #fcfcfc
#000000 #000000 0 1;
#X obj 1196 199 vsl 15 128 0 127 0 0 empty empty empty 0 -9 0 10 #fcfcfc
#000000 #000000 0 1;
#X connect 0 0 9 0;
#X connect 0 0 5 0;
#X connect 1 0 0 0;
#X connect 5 0 15 0;
#X connect 9 0 14 0;
#X connect 14 0 8 0;
#X connect 15 0 8 1;
#X connect 16 0 14 1;
#X connect 17 0 15 1;
